<svg width="32" height="32" viewBox="0 0 32 32" fill="none" xmlns="http://www.w3.org/2000/svg">
<mask id="mask0_33_596" style="mask-type:alpha" maskUnits="userSpaceOnUse" x="0" y="0" width="32" height="32">
<rect x="32" y="32" width="32" height="32" transform="rotate(-180 32 32)" fill="#D9D9D9"/>
</mask>
<g mask="url(#mask0_33_596)">
<path d="M15.9999 18.0825L21.4307 12.6517C21.6153 12.4671 21.8473 12.3727 22.1268 12.3684C22.4063 12.3641 22.6426 12.4586 22.8357 12.6517C23.0289 12.8449 23.1255 13.0791 23.1255 13.3543C23.1255 13.6295 23.0289 13.8637 22.8357 14.0568L16.8434 20.0491C16.7186 20.1739 16.587 20.2619 16.4486 20.3132C16.3101 20.3645 16.1605 20.3901 15.9999 20.3901C15.8392 20.3901 15.6896 20.3645 15.5512 20.3132C15.4127 20.2619 15.2811 20.1739 15.1563 20.0491L9.16399 14.0568C8.97936 13.8722 8.88492 13.6402 8.88065 13.3607C8.87636 13.0812 8.97081 12.8449 9.16399 12.6517C9.35714 12.4586 9.59132 12.362 9.86652 12.362C10.1417 12.362 10.3759 12.4586 10.5691 12.6517L15.9999 18.0825Z" fill="white"/>
</g>
</svg>
